<svg xmlns="http://www.w3.org/2000/svg" width="32" height="32" version="1" id="camera">
  <path fill-rule="evenodd" d="M16 0C7.176 0 0 7.176 0 16s7.176 16 16 16 16-7.176 16-16S24.877 0 16 0zm-5.072 8.627H15.764c.118.059.235.06.353.178s.178.235.178.353V10.692h6.842a1.46 1.46 0 0 1 1.474 1.474v9.733a1.46 1.46 0 0 1-1.474 1.474H8.863a1.46 1.46 0 0 1-1.474-1.475v-9.732a1.46 1.46 0 0 1 1.474-1.475h1.533V9.158c.06-.118.06-.235.178-.353s.236-.178.354-.178zm-3.54 10.912c0 .177.177.295.354.295h4.719c.118 0 .295-.118.295-.295s-.118-.295-.295-.295H7.684c-.177 0-.295.177-.295.295zm17.223 0c0-.177-.118-.295-.295-.295H19.48c-.176.06-.295.236-.236.354.06.118.177.236.354.236h4.718c.118 0 .295-.118.295-.295zM11.754 9.807c-.118 0-.236.176-.295.353.059.118.177.236.354.236h2.949c.118 0 .295-.118.295-.294 0-.177-.118-.295-.295-.295h-3.008zm8.139 2.064c-.65 0-1.18.531-1.18 1.18 0 .649.53 1.18 1.18 1.18.648 0 1.18-.531 1.18-1.18 0-.649-.532-1.18-1.18-1.18zm-11.088.295c-.177 0-.295.177-.295.354.059.117.176.236.353.236h4.13c.117 0 .294-.118.294-.295s-.118-.295-.295-.295H8.805zm13.742 0a.907.907 0 0 0-.885.885c0 .472.413.885.885.885a.907.907 0 0 0 .885-.885.907.907 0 0 0-.885-.885zm-2.654.295c.294 0 .59.236.59.59 0 .295-.237.59-.59.59a.591.591 0 0 1-.59-.59c0-.295.295-.59.59-.59zm2.654.295c.177 0 .295.118.295.295s-.118.295-.295.295-.295-.118-.295-.295.118-.295.295-.295zm-6.842 1.77c-1.651 0-3.008 1.297-3.008 2.949 0 1.651 1.357 2.949 3.008 2.949 1.593 0 2.95-1.357 2.95-2.95 0-1.592-1.299-2.949-2.95-2.949z" clip-rule="evenodd"></path>
</svg>
